<mxfile host="Electron" modified="2024-03-25T19:31:05.326Z" agent="Mozilla/5.0 (X11; Linux x86_64) AppleWebKit/537.36 (KHTML, like Gecko) draw.io/24.1.0 Chrome/120.0.6099.291 Electron/28.2.5 Safari/537.36" etag="yXT6STDDdNxkkZ4LR93j" version="24.1.0" type="device" pages="2">
  <diagram name="Cloud runtime with manual delivery" id="1IK3TCP1afFfspMV8A2H">
    <mxGraphModel dx="3076" dy="1364" grid="1" gridSize="10" guides="1" tooltips="1" connect="1" arrows="1" fold="1" page="1" pageScale="1" pageWidth="850" pageHeight="1100" math="0" shadow="0">
      <root>
        <mxCell id="0" />
        <mxCell id="1" parent="0" />
        <mxCell id="vdFp0Z182QPm6FmqIftR-1" value="" style="whiteSpace=wrap;html=1;" vertex="1" parent="1">
          <mxGeometry x="-670" y="599" width="510" height="211" as="geometry" />
        </mxCell>
        <mxCell id="0T6ULmgSXiLOubvGON2h-28" style="edgeStyle=orthogonalEdgeStyle;rounded=0;orthogonalLoop=1;jettySize=auto;html=1;entryX=0;entryY=0.5;entryDx=0;entryDy=0;" edge="1" parent="1" source="0T6ULmgSXiLOubvGON2h-3" target="0T6ULmgSXiLOubvGON2h-29">
          <mxGeometry relative="1" as="geometry">
            <mxPoint x="-640" y="528.9999999999998" as="targetPoint" />
            <Array as="points">
              <mxPoint x="-670" y="749" />
              <mxPoint x="-670" y="749" />
            </Array>
          </mxGeometry>
        </mxCell>
        <mxCell id="0T6ULmgSXiLOubvGON2h-3" value="Repository" style="whiteSpace=wrap;html=1;aspect=fixed;" vertex="1" parent="1">
          <mxGeometry x="-850" y="599" width="160" height="160" as="geometry" />
        </mxCell>
        <mxCell id="0T6ULmgSXiLOubvGON2h-27" style="edgeStyle=orthogonalEdgeStyle;rounded=0;orthogonalLoop=1;jettySize=auto;html=1;entryX=0;entryY=0.5;entryDx=0;entryDy=0;" edge="1" parent="1" source="0T6ULmgSXiLOubvGON2h-25" target="0T6ULmgSXiLOubvGON2h-118">
          <mxGeometry relative="1" as="geometry">
            <mxPoint x="-75" y="689.7999999999997" as="targetPoint" />
          </mxGeometry>
        </mxCell>
        <mxCell id="0T6ULmgSXiLOubvGON2h-25" value="Manual&amp;nbsp; Deployment" style="rounded=0;whiteSpace=wrap;html=1;" vertex="1" parent="1">
          <mxGeometry x="-310" y="659" width="120" height="60" as="geometry" />
        </mxCell>
        <mxCell id="0T6ULmgSXiLOubvGON2h-29" value="Pipeline (Test and build)" style="rounded=0;whiteSpace=wrap;html=1;strokeColor=default;align=center;verticalAlign=middle;fontFamily=Helvetica;fontSize=12;fontColor=default;fillColor=default;" vertex="1" parent="1">
          <mxGeometry x="-600" y="720" width="150" height="60" as="geometry" />
        </mxCell>
        <mxCell id="0T6ULmgSXiLOubvGON2h-32" style="edgeStyle=orthogonalEdgeStyle;rounded=0;orthogonalLoop=1;jettySize=auto;html=1;exitX=0;exitY=0.5;exitDx=0;exitDy=0;" edge="1" parent="1" source="0T6ULmgSXiLOubvGON2h-25" target="0T6ULmgSXiLOubvGON2h-31">
          <mxGeometry relative="1" as="geometry">
            <Array as="points">
              <mxPoint x="-570" y="689" />
            </Array>
          </mxGeometry>
        </mxCell>
        <mxCell id="vdFp0Z182QPm6FmqIftR-9" style="edgeStyle=orthogonalEdgeStyle;rounded=0;orthogonalLoop=1;jettySize=auto;html=1;entryX=1;entryY=0.25;entryDx=0;entryDy=0;" edge="1" parent="1" source="0T6ULmgSXiLOubvGON2h-31" target="0T6ULmgSXiLOubvGON2h-3">
          <mxGeometry relative="1" as="geometry">
            <Array as="points">
              <mxPoint x="-640" y="639" />
              <mxPoint x="-640" y="639" />
            </Array>
          </mxGeometry>
        </mxCell>
        <mxCell id="0T6ULmgSXiLOubvGON2h-31" value="Images" style="rounded=0;whiteSpace=wrap;html=1;aspect=fixed;" vertex="1" parent="1">
          <mxGeometry x="-630" y="610" width="120" height="60" as="geometry" />
        </mxCell>
        <mxCell id="0T6ULmgSXiLOubvGON2h-35" style="edgeStyle=orthogonalEdgeStyle;rounded=0;orthogonalLoop=1;jettySize=auto;html=1;" edge="1" parent="1" source="0T6ULmgSXiLOubvGON2h-33" target="0T6ULmgSXiLOubvGON2h-3">
          <mxGeometry relative="1" as="geometry" />
        </mxCell>
        <mxCell id="vdFp0Z182QPm6FmqIftR-5" value="Push code" style="edgeLabel;html=1;align=center;verticalAlign=middle;resizable=0;points=[];" vertex="1" connectable="0" parent="0T6ULmgSXiLOubvGON2h-35">
          <mxGeometry x="-0.1246" y="1" relative="1" as="geometry">
            <mxPoint as="offset" />
          </mxGeometry>
        </mxCell>
        <mxCell id="vdFp0Z182QPm6FmqIftR-4" style="rounded=0;orthogonalLoop=1;jettySize=auto;html=1;" edge="1" parent="1" source="0T6ULmgSXiLOubvGON2h-33" target="0T6ULmgSXiLOubvGON2h-31">
          <mxGeometry relative="1" as="geometry" />
        </mxCell>
        <mxCell id="vdFp0Z182QPm6FmqIftR-6" value="Create" style="edgeLabel;html=1;align=center;verticalAlign=middle;resizable=0;points=[];" vertex="1" connectable="0" parent="vdFp0Z182QPm6FmqIftR-4">
          <mxGeometry x="-0.4762" y="3" relative="1" as="geometry">
            <mxPoint x="-5" y="3" as="offset" />
          </mxGeometry>
        </mxCell>
        <mxCell id="vdFp0Z182QPm6FmqIftR-7" style="rounded=0;orthogonalLoop=1;jettySize=auto;html=1;entryX=0.25;entryY=0;entryDx=0;entryDy=0;" edge="1" parent="1" source="0T6ULmgSXiLOubvGON2h-33" target="0T6ULmgSXiLOubvGON2h-25">
          <mxGeometry relative="1" as="geometry" />
        </mxCell>
        <mxCell id="vdFp0Z182QPm6FmqIftR-8" value="Handle" style="edgeLabel;html=1;align=center;verticalAlign=middle;resizable=0;points=[];" vertex="1" connectable="0" parent="vdFp0Z182QPm6FmqIftR-7">
          <mxGeometry x="-0.7341" y="-1" relative="1" as="geometry">
            <mxPoint as="offset" />
          </mxGeometry>
        </mxCell>
        <mxCell id="0T6ULmgSXiLOubvGON2h-33" value="Devs" style="shape=umlActor;verticalLabelPosition=bottom;verticalAlign=top;html=1;outlineConnect=0;" vertex="1" parent="1">
          <mxGeometry x="-785" y="420" width="30" height="60" as="geometry" />
        </mxCell>
        <mxCell id="0T6ULmgSXiLOubvGON2h-69" style="edgeStyle=orthogonalEdgeStyle;rounded=0;orthogonalLoop=1;jettySize=auto;html=1;entryX=0;entryY=0.5;entryDx=0;entryDy=0;" edge="1" parent="1" target="0T6ULmgSXiLOubvGON2h-66">
          <mxGeometry relative="1" as="geometry">
            <mxPoint x="-330" y="1429" as="sourcePoint" />
          </mxGeometry>
        </mxCell>
        <mxCell id="0T6ULmgSXiLOubvGON2h-94" value="Dev/Prod" style="text;html=1;align=center;verticalAlign=middle;whiteSpace=wrap;rounded=0;" vertex="1" parent="1">
          <mxGeometry x="-180" y="659" width="60" height="30" as="geometry" />
        </mxCell>
        <mxCell id="0T6ULmgSXiLOubvGON2h-114" value="" style="group" vertex="1" connectable="0" parent="1">
          <mxGeometry x="-110" y="420" width="465" height="459.5999999999999" as="geometry" />
        </mxCell>
        <mxCell id="0T6ULmgSXiLOubvGON2h-115" value="" style="edgeStyle=orthogonalEdgeStyle;rounded=0;orthogonalLoop=1;jettySize=auto;html=1;entryX=0.5;entryY=0;entryDx=0;entryDy=0;" edge="1" parent="0T6ULmgSXiLOubvGON2h-114" source="0T6ULmgSXiLOubvGON2h-116" target="0T6ULmgSXiLOubvGON2h-127">
          <mxGeometry relative="1" as="geometry">
            <Array as="points">
              <mxPoint x="435" y="40" />
              <mxPoint x="310" y="40" />
            </Array>
          </mxGeometry>
        </mxCell>
        <mxCell id="0T6ULmgSXiLOubvGON2h-116" value="Users" style="shape=umlActor;verticalLabelPosition=bottom;verticalAlign=top;html=1;outlineConnect=0;" vertex="1" parent="0T6ULmgSXiLOubvGON2h-114">
          <mxGeometry x="435" width="30" height="60" as="geometry" />
        </mxCell>
        <mxCell id="0T6ULmgSXiLOubvGON2h-117" value="" style="group" vertex="1" connectable="0" parent="0T6ULmgSXiLOubvGON2h-114">
          <mxGeometry y="60" width="390" height="399.6" as="geometry" />
        </mxCell>
        <mxCell id="0T6ULmgSXiLOubvGON2h-118" value="Containerized-Failover-Cluster" style="whiteSpace=wrap;html=1;aspect=fixed;verticalAlign=top;" vertex="1" parent="0T6ULmgSXiLOubvGON2h-117">
          <mxGeometry y="20" width="390" height="379.6" as="geometry" />
        </mxCell>
        <mxCell id="0T6ULmgSXiLOubvGON2h-119" style="edgeStyle=orthogonalEdgeStyle;rounded=0;orthogonalLoop=1;jettySize=auto;html=1;" edge="1" parent="0T6ULmgSXiLOubvGON2h-117" source="0T6ULmgSXiLOubvGON2h-120" target="0T6ULmgSXiLOubvGON2h-122">
          <mxGeometry relative="1" as="geometry" />
        </mxCell>
        <mxCell id="0T6ULmgSXiLOubvGON2h-120" value="Backend" style="whiteSpace=wrap;html=1;aspect=fixed;" vertex="1" parent="0T6ULmgSXiLOubvGON2h-117">
          <mxGeometry x="25" y="80" width="80" height="80" as="geometry" />
        </mxCell>
        <mxCell id="0T6ULmgSXiLOubvGON2h-121" style="edgeStyle=orthogonalEdgeStyle;rounded=0;orthogonalLoop=1;jettySize=auto;html=1;" edge="1" parent="0T6ULmgSXiLOubvGON2h-117" source="0T6ULmgSXiLOubvGON2h-122" target="0T6ULmgSXiLOubvGON2h-127">
          <mxGeometry relative="1" as="geometry" />
        </mxCell>
        <mxCell id="0T6ULmgSXiLOubvGON2h-122" value="Frontend App" style="whiteSpace=wrap;html=1;aspect=fixed;" vertex="1" parent="0T6ULmgSXiLOubvGON2h-117">
          <mxGeometry x="290" y="80" width="80" height="80" as="geometry" />
        </mxCell>
        <mxCell id="0T6ULmgSXiLOubvGON2h-123" style="edgeStyle=orthogonalEdgeStyle;rounded=0;orthogonalLoop=1;jettySize=auto;html=1;" edge="1" parent="0T6ULmgSXiLOubvGON2h-117" source="0T6ULmgSXiLOubvGON2h-124" target="0T6ULmgSXiLOubvGON2h-120">
          <mxGeometry relative="1" as="geometry" />
        </mxCell>
        <mxCell id="0T6ULmgSXiLOubvGON2h-124" value="Recipe-DB" style="whiteSpace=wrap;html=1;aspect=fixed;" vertex="1" parent="0T6ULmgSXiLOubvGON2h-117">
          <mxGeometry x="25" y="260" width="80" height="80" as="geometry" />
        </mxCell>
        <mxCell id="0T6ULmgSXiLOubvGON2h-125" style="edgeStyle=orthogonalEdgeStyle;rounded=0;orthogonalLoop=1;jettySize=auto;html=1;entryX=0.75;entryY=1;entryDx=0;entryDy=0;" edge="1" parent="0T6ULmgSXiLOubvGON2h-117" source="0T6ULmgSXiLOubvGON2h-126" target="0T6ULmgSXiLOubvGON2h-120">
          <mxGeometry relative="1" as="geometry">
            <Array as="points">
              <mxPoint x="330" y="240" />
              <mxPoint x="85" y="240" />
            </Array>
          </mxGeometry>
        </mxCell>
        <mxCell id="0T6ULmgSXiLOubvGON2h-126" value="Main-DB" style="whiteSpace=wrap;html=1;aspect=fixed;" vertex="1" parent="0T6ULmgSXiLOubvGON2h-117">
          <mxGeometry x="290" y="260" width="80" height="80" as="geometry" />
        </mxCell>
        <mxCell id="0T6ULmgSXiLOubvGON2h-127" value="Ingress/Gateway" style="whiteSpace=wrap;html=1;" vertex="1" parent="0T6ULmgSXiLOubvGON2h-117">
          <mxGeometry x="280" y="10" width="100" height="40" as="geometry" />
        </mxCell>
        <mxCell id="0T6ULmgSXiLOubvGON2h-128" value="Dev/Prod" style="text;html=1;align=center;verticalAlign=middle;whiteSpace=wrap;rounded=0;" vertex="1" parent="0T6ULmgSXiLOubvGON2h-114">
          <mxGeometry x="150" y="30" width="60" height="30" as="geometry" />
        </mxCell>
        <mxCell id="0T6ULmgSXiLOubvGON2h-137" style="rounded=0;orthogonalLoop=1;jettySize=auto;html=1;dashed=1;" edge="1" parent="1" source="0T6ULmgSXiLOubvGON2h-136" target="0T6ULmgSXiLOubvGON2h-118">
          <mxGeometry relative="1" as="geometry">
            <mxPoint x="140" y="510" as="targetPoint" />
          </mxGeometry>
        </mxCell>
        <mxCell id="0T6ULmgSXiLOubvGON2h-136" value="k8s-impl" style="shape=note2;boundedLbl=1;whiteSpace=wrap;html=1;size=25;verticalAlign=top;align=center;" vertex="1" parent="1">
          <mxGeometry x="-120" y="350" width="70" height="60" as="geometry" />
        </mxCell>
        <mxCell id="0T6ULmgSXiLOubvGON2h-140" style="rounded=0;orthogonalLoop=1;jettySize=auto;html=1;dashed=1;" edge="1" parent="1" source="0T6ULmgSXiLOubvGON2h-139">
          <mxGeometry relative="1" as="geometry">
            <mxPoint x="170" y="490" as="targetPoint" />
          </mxGeometry>
        </mxCell>
        <mxCell id="0T6ULmgSXiLOubvGON2h-139" value="Ingress (simpler for our use case but does not receive new features and is implementation-dependent) vs API Gateway" style="shape=note2;boundedLbl=1;whiteSpace=wrap;html=1;size=25;verticalAlign=top;align=center;" vertex="1" parent="1">
          <mxGeometry x="20" y="330" width="250" height="90" as="geometry" />
        </mxCell>
        <mxCell id="0T6ULmgSXiLOubvGON2h-142" style="edgeStyle=orthogonalEdgeStyle;rounded=0;orthogonalLoop=1;jettySize=auto;html=1;dashed=1;" edge="1" parent="1" source="0T6ULmgSXiLOubvGON2h-141" target="0T6ULmgSXiLOubvGON2h-126">
          <mxGeometry relative="1" as="geometry">
            <mxPoint x="350" y="800" as="targetPoint" />
          </mxGeometry>
        </mxCell>
        <mxCell id="0T6ULmgSXiLOubvGON2h-141" value="Currently an in-Mem DB is used for this. Will need to be extracted into standalone DB such as Postgres" style="shape=note2;boundedLbl=1;whiteSpace=wrap;html=1;size=25;verticalAlign=top;align=center;" vertex="1" parent="1">
          <mxGeometry x="400" y="720" width="150" height="120" as="geometry" />
        </mxCell>
        <mxCell id="0T6ULmgSXiLOubvGON2h-148" style="rounded=0;orthogonalLoop=1;jettySize=auto;html=1;entryX=0.5;entryY=1;entryDx=0;entryDy=0;dashed=1;" edge="1" parent="1" source="0T6ULmgSXiLOubvGON2h-147" target="0T6ULmgSXiLOubvGON2h-124">
          <mxGeometry relative="1" as="geometry">
            <mxPoint x="575" y="880" as="targetPoint" />
          </mxGeometry>
        </mxCell>
        <mxCell id="0T6ULmgSXiLOubvGON2h-147" value="Keeping Neo4J or migrating to another GraphDb?" style="shape=note2;boundedLbl=1;whiteSpace=wrap;html=1;size=25;verticalAlign=top;align=center;" vertex="1" parent="1">
          <mxGeometry x="-125" y="960" width="120" height="100" as="geometry" />
        </mxCell>
        <mxCell id="0T6ULmgSXiLOubvGON2h-151" style="rounded=0;orthogonalLoop=1;jettySize=auto;html=1;dashed=1;entryX=0.5;entryY=1;entryDx=0;entryDy=0;" edge="1" parent="1" source="0T6ULmgSXiLOubvGON2h-150" target="0T6ULmgSXiLOubvGON2h-126">
          <mxGeometry relative="1" as="geometry">
            <mxPoint x="825.3333333333335" y="880" as="targetPoint" />
          </mxGeometry>
        </mxCell>
        <mxCell id="0T6ULmgSXiLOubvGON2h-152" style="rounded=0;orthogonalLoop=1;jettySize=auto;html=1;dashed=1;entryX=1;entryY=1;entryDx=0;entryDy=0;" edge="1" parent="1" source="0T6ULmgSXiLOubvGON2h-150" target="0T6ULmgSXiLOubvGON2h-124">
          <mxGeometry relative="1" as="geometry">
            <mxPoint x="596" y="880" as="targetPoint" />
          </mxGeometry>
        </mxCell>
        <mxCell id="0T6ULmgSXiLOubvGON2h-150" value="HA-Setup of two different DB-Types will be required" style="shape=note2;boundedLbl=1;whiteSpace=wrap;html=1;size=25;verticalAlign=top;align=center;" vertex="1" parent="1">
          <mxGeometry x="160" y="970" width="120" height="100" as="geometry" />
        </mxCell>
        <mxCell id="0T6ULmgSXiLOubvGON2h-154" value="&lt;font style=&quot;font-size: 20px;&quot;&gt;Team Size == 4&lt;/font&gt;&lt;div&gt;&lt;font style=&quot;font-size: 20px;&quot;&gt;Cloud runtime with manual delivery&lt;/font&gt;&lt;/div&gt;" style="text;html=1;align=center;verticalAlign=middle;whiteSpace=wrap;rounded=0;fontSize=20;fillColor=#647687;fontColor=#ffffff;strokeColor=#314354;" vertex="1" parent="1">
          <mxGeometry x="-800" y="270" width="420" height="60" as="geometry" />
        </mxCell>
        <mxCell id="0T6ULmgSXiLOubvGON2h-160" style="rounded=0;orthogonalLoop=1;jettySize=auto;html=1;dashed=1;exitX=0.5;exitY=1;exitDx=0;exitDy=0;exitPerimeter=0;" edge="1" parent="1" source="0T6ULmgSXiLOubvGON2h-159" target="0T6ULmgSXiLOubvGON2h-29">
          <mxGeometry relative="1" as="geometry" />
        </mxCell>
        <mxCell id="0T6ULmgSXiLOubvGON2h-159" value="Where to run the pipelines without CI/CD?&lt;div&gt;Azure?&lt;/div&gt;" style="shape=note2;boundedLbl=1;whiteSpace=wrap;html=1;size=25;verticalAlign=top;align=center;" vertex="1" parent="1">
          <mxGeometry x="-820" y="870" width="245" height="80" as="geometry" />
        </mxCell>
        <mxCell id="0T6ULmgSXiLOubvGON2h-161" style="rounded=0;orthogonalLoop=1;jettySize=auto;html=1;dashed=1;exitX=0.476;exitY=1.013;exitDx=0;exitDy=0;exitPerimeter=0;" edge="1" parent="1" source="0T6ULmgSXiLOubvGON2h-159" target="0T6ULmgSXiLOubvGON2h-31">
          <mxGeometry relative="1" as="geometry">
            <mxPoint x="-442" y="500" as="sourcePoint" />
            <mxPoint x="-568" y="669" as="targetPoint" />
          </mxGeometry>
        </mxCell>
        <mxCell id="0T6ULmgSXiLOubvGON2h-163" style="rounded=0;orthogonalLoop=1;jettySize=auto;html=1;dashed=1;exitX=0.5;exitY=0;exitDx=0;exitDy=0;exitPerimeter=0;" edge="1" parent="1" source="0T6ULmgSXiLOubvGON2h-165">
          <mxGeometry relative="1" as="geometry">
            <mxPoint x="-220" y="719" as="targetPoint" />
          </mxGeometry>
        </mxCell>
        <mxCell id="0T6ULmgSXiLOubvGON2h-165" value="Kustomize/Helm/Only Kubectl?" style="shape=note2;boundedLbl=1;whiteSpace=wrap;html=1;size=25;verticalAlign=top;align=center;" vertex="1" parent="1">
          <mxGeometry x="-400" y="900" width="245" height="80" as="geometry" />
        </mxCell>
      </root>
    </mxGraphModel>
  </diagram>
  <diagram id="LuyqXgXpDid0s6LZ_T8b" name="Cloud runtime with continuous delivery ">
    <mxGraphModel dx="2683" dy="24" grid="1" gridSize="10" guides="1" tooltips="1" connect="1" arrows="1" fold="1" page="1" pageScale="1" pageWidth="850" pageHeight="1100" math="0" shadow="0">
      <root>
        <mxCell id="0" />
        <mxCell id="1" parent="0" />
        <mxCell id="xtVUxEUk3DJUBac9Yi-R-1" value="CI/CD-Tool" style="rounded=0;whiteSpace=wrap;html=1;verticalAlign=top;" vertex="1" parent="1">
          <mxGeometry x="-610" y="1535" width="390" height="405" as="geometry" />
        </mxCell>
        <mxCell id="xtVUxEUk3DJUBac9Yi-R-2" style="edgeStyle=orthogonalEdgeStyle;rounded=0;orthogonalLoop=1;jettySize=auto;html=1;entryX=0;entryY=0.5;entryDx=0;entryDy=0;" edge="1" parent="1" source="xtVUxEUk3DJUBac9Yi-R-3" target="xtVUxEUk3DJUBac9Yi-R-6">
          <mxGeometry relative="1" as="geometry" />
        </mxCell>
        <mxCell id="xtVUxEUk3DJUBac9Yi-R-3" value="CI-Repository" style="whiteSpace=wrap;html=1;aspect=fixed;" vertex="1" parent="1">
          <mxGeometry x="-850" y="1514" width="160" height="160" as="geometry" />
        </mxCell>
        <mxCell id="xtVUxEUk3DJUBac9Yi-R-4" style="edgeStyle=orthogonalEdgeStyle;rounded=0;orthogonalLoop=1;jettySize=auto;html=1;entryX=0;entryY=0.5;entryDx=0;entryDy=0;" edge="1" parent="1" source="xtVUxEUk3DJUBac9Yi-R-6" target="xtVUxEUk3DJUBac9Yi-R-16">
          <mxGeometry relative="1" as="geometry" />
        </mxCell>
        <mxCell id="kyZdr7qx1ZTh1zlqL-Jc-2" value="generates&lt;br&gt;and push &lt;br&gt;images" style="edgeLabel;html=1;align=center;verticalAlign=middle;resizable=0;points=[];" vertex="1" connectable="0" parent="xtVUxEUk3DJUBac9Yi-R-4">
          <mxGeometry x="-0.1282" y="-1" relative="1" as="geometry">
            <mxPoint as="offset" />
          </mxGeometry>
        </mxCell>
        <mxCell id="xtVUxEUk3DJUBac9Yi-R-5" style="rounded=0;orthogonalLoop=1;jettySize=auto;html=1;" edge="1" parent="1" source="xtVUxEUk3DJUBac9Yi-R-6" target="xtVUxEUk3DJUBac9Yi-R-17">
          <mxGeometry relative="1" as="geometry" />
        </mxCell>
        <mxCell id="xtVUxEUk3DJUBac9Yi-R-6" value="CI-Pipeline" style="rounded=0;whiteSpace=wrap;html=1;" vertex="1" parent="1">
          <mxGeometry x="-575" y="1564" width="120" height="60" as="geometry" />
        </mxCell>
        <mxCell id="xtVUxEUk3DJUBac9Yi-R-7" style="edgeStyle=orthogonalEdgeStyle;rounded=0;orthogonalLoop=1;jettySize=auto;html=1;" edge="1" parent="1" source="xtVUxEUk3DJUBac9Yi-R-8" target="xtVUxEUk3DJUBac9Yi-R-3">
          <mxGeometry relative="1" as="geometry" />
        </mxCell>
        <mxCell id="kyZdr7qx1ZTh1zlqL-Jc-1" value="push code" style="edgeLabel;html=1;align=center;verticalAlign=middle;resizable=0;points=[];" vertex="1" connectable="0" parent="xtVUxEUk3DJUBac9Yi-R-7">
          <mxGeometry x="-0.0776" y="-2" relative="1" as="geometry">
            <mxPoint as="offset" />
          </mxGeometry>
        </mxCell>
        <mxCell id="xtVUxEUk3DJUBac9Yi-R-8" value="Devs" style="shape=umlActor;verticalLabelPosition=bottom;verticalAlign=top;html=1;outlineConnect=0;" vertex="1" parent="1">
          <mxGeometry x="-785" y="1335" width="30" height="60" as="geometry" />
        </mxCell>
        <mxCell id="xtVUxEUk3DJUBac9Yi-R-9" style="edgeStyle=orthogonalEdgeStyle;rounded=0;orthogonalLoop=1;jettySize=auto;html=1;entryX=0;entryY=0.5;entryDx=0;entryDy=0;" edge="1" parent="1" source="xtVUxEUk3DJUBac9Yi-R-10" target="xtVUxEUk3DJUBac9Yi-R-12">
          <mxGeometry relative="1" as="geometry" />
        </mxCell>
        <mxCell id="xtVUxEUk3DJUBac9Yi-R-10" value="CD-Repository" style="whiteSpace=wrap;html=1;aspect=fixed;" vertex="1" parent="1">
          <mxGeometry x="-850" y="1685" width="160" height="160" as="geometry" />
        </mxCell>
        <mxCell id="xtVUxEUk3DJUBac9Yi-R-11" style="edgeStyle=orthogonalEdgeStyle;rounded=0;orthogonalLoop=1;jettySize=auto;html=1;dashed=1;dashPattern=8 8;" edge="1" parent="1" source="xtVUxEUk3DJUBac9Yi-R-12" target="xtVUxEUk3DJUBac9Yi-R-17">
          <mxGeometry relative="1" as="geometry" />
        </mxCell>
        <mxCell id="v72K1sbmR-Il0YEyyXhD-1" value="includes" style="edgeLabel;html=1;align=center;verticalAlign=middle;resizable=0;points=[];" vertex="1" connectable="0" parent="xtVUxEUk3DJUBac9Yi-R-11">
          <mxGeometry x="0.0697" y="1" relative="1" as="geometry">
            <mxPoint as="offset" />
          </mxGeometry>
        </mxCell>
        <mxCell id="xtVUxEUk3DJUBac9Yi-R-12" value="CD-Pipeline" style="rounded=0;whiteSpace=wrap;html=1;" vertex="1" parent="1">
          <mxGeometry x="-575" y="1735" width="120" height="60" as="geometry" />
        </mxCell>
        <mxCell id="xtVUxEUk3DJUBac9Yi-R-15" style="edgeStyle=orthogonalEdgeStyle;rounded=0;orthogonalLoop=1;jettySize=auto;html=1;" edge="1" parent="1" source="xtVUxEUk3DJUBac9Yi-R-17" target="xtVUxEUk3DJUBac9Yi-R-16">
          <mxGeometry relative="1" as="geometry" />
        </mxCell>
        <mxCell id="xtVUxEUk3DJUBac9Yi-R-16" value="Image Repository/Storage" style="rounded=0;whiteSpace=wrap;html=1;" vertex="1" parent="1">
          <mxGeometry x="-360" y="1564" width="120" height="60" as="geometry" />
        </mxCell>
        <mxCell id="xtVUxEUk3DJUBac9Yi-R-17" value="Automated Deployment" style="rounded=0;whiteSpace=wrap;html=1;" vertex="1" parent="1">
          <mxGeometry x="-575" y="1845" width="120" height="60" as="geometry" />
        </mxCell>
        <mxCell id="xtVUxEUk3DJUBac9Yi-R-18" value="" style="group" vertex="1" connectable="0" parent="1">
          <mxGeometry x="-90" y="1490" width="465" height="459.5999999999999" as="geometry" />
        </mxCell>
        <mxCell id="xtVUxEUk3DJUBac9Yi-R-19" value="" style="edgeStyle=orthogonalEdgeStyle;rounded=0;orthogonalLoop=1;jettySize=auto;html=1;entryX=0.5;entryY=0;entryDx=0;entryDy=0;" edge="1" parent="xtVUxEUk3DJUBac9Yi-R-18" source="xtVUxEUk3DJUBac9Yi-R-20" target="xtVUxEUk3DJUBac9Yi-R-31">
          <mxGeometry relative="1" as="geometry">
            <Array as="points">
              <mxPoint x="435" y="40" />
              <mxPoint x="310" y="40" />
            </Array>
          </mxGeometry>
        </mxCell>
        <mxCell id="xtVUxEUk3DJUBac9Yi-R-20" value="Users" style="shape=umlActor;verticalLabelPosition=bottom;verticalAlign=top;html=1;outlineConnect=0;" vertex="1" parent="xtVUxEUk3DJUBac9Yi-R-18">
          <mxGeometry x="435" width="30" height="60" as="geometry" />
        </mxCell>
        <mxCell id="xtVUxEUk3DJUBac9Yi-R-21" value="" style="group" vertex="1" connectable="0" parent="xtVUxEUk3DJUBac9Yi-R-18">
          <mxGeometry y="60" width="390" height="399.6" as="geometry" />
        </mxCell>
        <mxCell id="xtVUxEUk3DJUBac9Yi-R-22" value="Containerized-Failover-Cluster" style="whiteSpace=wrap;html=1;aspect=fixed;verticalAlign=top;" vertex="1" parent="xtVUxEUk3DJUBac9Yi-R-21">
          <mxGeometry y="20" width="390" height="379.6" as="geometry" />
        </mxCell>
        <mxCell id="xtVUxEUk3DJUBac9Yi-R-23" style="edgeStyle=orthogonalEdgeStyle;rounded=0;orthogonalLoop=1;jettySize=auto;html=1;" edge="1" parent="xtVUxEUk3DJUBac9Yi-R-21" source="xtVUxEUk3DJUBac9Yi-R-24" target="xtVUxEUk3DJUBac9Yi-R-26">
          <mxGeometry relative="1" as="geometry" />
        </mxCell>
        <mxCell id="xtVUxEUk3DJUBac9Yi-R-24" value="Backend" style="whiteSpace=wrap;html=1;aspect=fixed;" vertex="1" parent="xtVUxEUk3DJUBac9Yi-R-21">
          <mxGeometry x="25" y="80" width="80" height="80" as="geometry" />
        </mxCell>
        <mxCell id="xtVUxEUk3DJUBac9Yi-R-25" style="edgeStyle=orthogonalEdgeStyle;rounded=0;orthogonalLoop=1;jettySize=auto;html=1;" edge="1" parent="xtVUxEUk3DJUBac9Yi-R-21" source="xtVUxEUk3DJUBac9Yi-R-26" target="xtVUxEUk3DJUBac9Yi-R-31">
          <mxGeometry relative="1" as="geometry" />
        </mxCell>
        <mxCell id="xtVUxEUk3DJUBac9Yi-R-26" value="Frontend App" style="whiteSpace=wrap;html=1;aspect=fixed;" vertex="1" parent="xtVUxEUk3DJUBac9Yi-R-21">
          <mxGeometry x="290" y="80" width="80" height="80" as="geometry" />
        </mxCell>
        <mxCell id="xtVUxEUk3DJUBac9Yi-R-27" style="edgeStyle=orthogonalEdgeStyle;rounded=0;orthogonalLoop=1;jettySize=auto;html=1;" edge="1" parent="xtVUxEUk3DJUBac9Yi-R-21" source="xtVUxEUk3DJUBac9Yi-R-28" target="xtVUxEUk3DJUBac9Yi-R-24">
          <mxGeometry relative="1" as="geometry">
            <Array as="points">
              <mxPoint x="50" y="210" />
              <mxPoint x="50" y="210" />
            </Array>
          </mxGeometry>
        </mxCell>
        <mxCell id="xtVUxEUk3DJUBac9Yi-R-28" value="Recipe-DB" style="whiteSpace=wrap;html=1;aspect=fixed;" vertex="1" parent="xtVUxEUk3DJUBac9Yi-R-21">
          <mxGeometry x="25" y="260" width="80" height="80" as="geometry" />
        </mxCell>
        <mxCell id="xtVUxEUk3DJUBac9Yi-R-29" style="edgeStyle=orthogonalEdgeStyle;rounded=0;orthogonalLoop=1;jettySize=auto;html=1;entryX=0.75;entryY=1;entryDx=0;entryDy=0;" edge="1" parent="xtVUxEUk3DJUBac9Yi-R-21" source="xtVUxEUk3DJUBac9Yi-R-30" target="xtVUxEUk3DJUBac9Yi-R-24">
          <mxGeometry relative="1" as="geometry">
            <Array as="points">
              <mxPoint x="330" y="240" />
              <mxPoint x="85" y="240" />
            </Array>
          </mxGeometry>
        </mxCell>
        <mxCell id="xtVUxEUk3DJUBac9Yi-R-30" value="Main-DB" style="whiteSpace=wrap;html=1;aspect=fixed;" vertex="1" parent="xtVUxEUk3DJUBac9Yi-R-21">
          <mxGeometry x="290" y="260" width="80" height="80" as="geometry" />
        </mxCell>
        <mxCell id="xtVUxEUk3DJUBac9Yi-R-31" value="Ingress/Gateway" style="whiteSpace=wrap;html=1;" vertex="1" parent="xtVUxEUk3DJUBac9Yi-R-21">
          <mxGeometry x="280" y="10" width="100" height="40" as="geometry" />
        </mxCell>
        <mxCell id="xtVUxEUk3DJUBac9Yi-R-32" value="Dev/Prod" style="text;html=1;align=center;verticalAlign=middle;whiteSpace=wrap;rounded=0;" vertex="1" parent="xtVUxEUk3DJUBac9Yi-R-18">
          <mxGeometry x="150" y="30" width="60" height="30" as="geometry" />
        </mxCell>
        <mxCell id="xtVUxEUk3DJUBac9Yi-R-34" style="rounded=0;orthogonalLoop=1;jettySize=auto;html=1;dashed=1;entryX=0;entryY=1;entryDx=0;entryDy=0;" edge="1" parent="1" source="xtVUxEUk3DJUBac9Yi-R-35" target="xtVUxEUk3DJUBac9Yi-R-1">
          <mxGeometry relative="1" as="geometry" />
        </mxCell>
        <mxCell id="xtVUxEUk3DJUBac9Yi-R-35" value="What tool to use and where to deploy to? (Flux, ArgoCD) deployd to the same k8s cluster?" style="shape=note2;boundedLbl=1;whiteSpace=wrap;html=1;size=25;verticalAlign=top;align=center;" vertex="1" parent="1">
          <mxGeometry x="-785" y="2040" width="120" height="110" as="geometry" />
        </mxCell>
        <mxCell id="xtVUxEUk3DJUBac9Yi-R-36" style="rounded=0;orthogonalLoop=1;jettySize=auto;html=1;dashed=1;" edge="1" parent="1" source="xtVUxEUk3DJUBac9Yi-R-37" target="xtVUxEUk3DJUBac9Yi-R-16">
          <mxGeometry relative="1" as="geometry" />
        </mxCell>
        <mxCell id="xtVUxEUk3DJUBac9Yi-R-37" value="Is an Image Repository really needed and if yes, which tech?" style="shape=note2;boundedLbl=1;whiteSpace=wrap;html=1;size=25;verticalAlign=top;align=center;" vertex="1" parent="1">
          <mxGeometry x="-360" y="1375" width="120" height="100" as="geometry" />
        </mxCell>
        <mxCell id="xtVUxEUk3DJUBac9Yi-R-39" value="Kustomize/Helm/Only Kubectl?" style="shape=note2;boundedLbl=1;whiteSpace=wrap;html=1;size=25;verticalAlign=top;align=center;" vertex="1" parent="1">
          <mxGeometry x="-580" y="2055" width="245" height="80" as="geometry" />
        </mxCell>
        <mxCell id="xtVUxEUk3DJUBac9Yi-R-40" style="rounded=0;orthogonalLoop=1;jettySize=auto;html=1;entryX=1;entryY=1;entryDx=0;entryDy=0;dashed=1;exitX=0;exitY=0;exitDx=110.00000000000001;exitDy=0;exitPerimeter=0;" edge="1" parent="1" source="xtVUxEUk3DJUBac9Yi-R-39" target="xtVUxEUk3DJUBac9Yi-R-17">
          <mxGeometry relative="1" as="geometry">
            <mxPoint x="-140" y="1305.0000000000005" as="sourcePoint" />
          </mxGeometry>
        </mxCell>
        <mxCell id="xtVUxEUk3DJUBac9Yi-R-41" value="&lt;font style=&quot;font-size: 20px;&quot;&gt;Team Size &amp;gt; 4&lt;/font&gt;&lt;div&gt;Cloud runtime with continuous delivery (CI/CD)&lt;br&gt;&lt;/div&gt;" style="text;html=1;align=center;verticalAlign=middle;whiteSpace=wrap;rounded=0;fontSize=20;fillColor=#647687;fontColor=#ffffff;strokeColor=#314354;" vertex="1" parent="1">
          <mxGeometry x="-800" y="1210" width="420" height="60" as="geometry" />
        </mxCell>
        <mxCell id="v72K1sbmR-Il0YEyyXhD-2" style="edgeStyle=orthogonalEdgeStyle;rounded=0;orthogonalLoop=1;jettySize=auto;html=1;exitX=1;exitY=0.5;exitDx=0;exitDy=0;" edge="1" parent="1" source="xtVUxEUk3DJUBac9Yi-R-12">
          <mxGeometry relative="1" as="geometry">
            <mxPoint x="-92" y="1765" as="targetPoint" />
          </mxGeometry>
        </mxCell>
        <mxCell id="v72K1sbmR-Il0YEyyXhD-3" value="deploys to&amp;nbsp;&lt;span style=&quot;font-size: 12px; text-wrap: wrap; background-color: rgb(27, 29, 30);&quot;&gt;Test/Dev/Prod&lt;/span&gt;&amp;nbsp;&lt;span style=&quot;color: rgba(0, 0, 0, 0); font-family: monospace; font-size: 0px; text-align: start; background-color: rgb(27, 29, 30);&quot;&gt;%3CmxGraphModel%3E%3Croot%3E%3CmxCell%20id%3D%220%22%2F%3E%3CmxCell%20id%3D%221%22%20parent%3D%220%22%2F%3E%3CmxCell%20id%3D%222%22%20value%3D%22%26lt%3Bspan%20style%3D%26quot%3Bfont-size%3A%2012px%3B%20text-wrap%3A%20wrap%3B%20background-color%3A%20rgb(27%2C%2029%2C%2030)%3B%26quot%3B%26gt%3BTest%2FDev%2FProd%26lt%3B%2Fspan%26gt%3B%22%20style%3D%22edgeLabel%3Bhtml%3D1%3Balign%3Dcenter%3BverticalAlign%3Dmiddle%3Bresizable%3D0%3Bpoints%3D%5B%5D%3B%22%20vertex%3D%221%22%20connectable%3D%220%22%20parent%3D%221%22%3E%3CmxGeometry%20x%3D%22-149.59038146311332%22%20y%3D%221774.8881095452357%22%20as%3D%22geometry%22%2F%3E%3C%2FmxCell%3E%3C%2Froot%3E%3C%2FmxGraphModel%3E&lt;/span&gt;" style="edgeLabel;html=1;align=center;verticalAlign=middle;resizable=0;points=[];" vertex="1" connectable="0" parent="v72K1sbmR-Il0YEyyXhD-2">
          <mxGeometry x="-0.01" relative="1" as="geometry">
            <mxPoint as="offset" />
          </mxGeometry>
        </mxCell>
      </root>
    </mxGraphModel>
  </diagram>
</mxfile>
